<svg width="40" height="40" viewBox="0 0 40 40" fill="none" xmlns="http://www.w3.org/2000/svg">
<g clip-path="url(#clip0_9483_17009)">
<path fill-rule="evenodd" clip-rule="evenodd" d="M6.5981 4.93209L8.41791 -0.527344H11.5802L13.4 4.93209L18.8594 6.7519V9.91418L13.4 11.734L11.5802 17.1934H8.41791L6.5981 11.734L1.13867 9.91418V6.7519L6.5981 4.93209ZM9.99905 5.27017L9.49686 6.77675L8.44276 7.83084L6.93618 8.33304L8.44276 8.83523L9.49686 9.88932L9.99905 11.3959L10.5012 9.88932L11.5553 8.83523L13.0619 8.33304L11.5553 7.83084L10.5012 6.77675L9.99905 5.27017ZM28.4806 10.0623C27.7305 10.001 26.76 9.99972 25.3324 9.99972H23.3324V6.66638H25.4012C26.7428 6.66636 27.8501 6.66634 28.7521 6.74004C29.6889 6.81658 30.5501 6.98085 31.359 7.39301C32.6134 8.03216 33.6332 9.05203 34.2724 10.3064C34.6846 11.1153 34.8488 11.9765 34.9254 12.9133C34.9991 13.8153 34.999 14.9226 34.999 16.2642V22.0677C34.999 23.4093 34.9991 24.5165 34.9254 25.4185C34.8488 26.3553 34.6846 27.2165 34.2724 28.0254C33.6332 29.2798 32.6134 30.2997 31.359 30.9388C30.5501 31.351 29.6889 31.5153 28.7521 31.5918C27.8501 31.6655 26.7428 31.6655 25.4012 31.6654H25.0514L21.2646 36.0843L18.7335 36.0842L14.9467 31.6654H14.5968C13.2552 31.6655 12.148 31.6655 11.246 31.5918C10.3092 31.5153 9.44798 31.351 8.63909 30.9388C7.38467 30.2997 6.3648 29.2798 5.72565 28.0254C5.3135 27.2165 5.14922 26.3553 5.07268 25.4185C4.99899 24.5165 4.999 23.4092 4.99903 22.0676L4.99903 20.8326H8.33236V21.9988C8.33236 23.4264 8.33366 24.3969 8.39495 25.1471C8.45465 25.8777 8.56286 26.2514 8.69567 26.5121C9.01525 27.1393 9.52519 27.6492 10.1524 27.9688C10.4131 28.1016 10.7867 28.2098 11.5174 28.2695C12.2676 28.3308 13.2381 28.3321 14.6657 28.3321H16.48L19.999 32.4385L23.5181 28.3321H25.3324C26.76 28.3321 27.7305 28.3308 28.4806 28.2695C29.2113 28.2098 29.585 28.1016 29.8457 27.9688C30.4729 27.6492 30.9828 27.1393 31.3024 26.5121C31.4352 26.2514 31.5434 25.8777 31.6031 25.1471C31.6644 24.3969 31.6657 23.4264 31.6657 21.9988V16.333C31.6657 14.9054 31.6644 13.9349 31.6031 13.1848C31.5434 12.4541 31.4352 12.0804 31.3024 11.8197C30.9828 11.1925 30.4729 10.6826 29.8457 10.363C29.585 10.2302 29.2113 10.122 28.4806 10.0623Z" fill="white"/>
<path fill-rule="evenodd" clip-rule="evenodd" d="M17.9585 17.9591L19.0504 14.6835H20.9477L22.0396 17.9591L25.3153 19.051V20.9484L22.0396 22.0403L20.9477 25.3159H19.0504L17.9585 22.0403L14.6828 20.9484V19.051L17.9585 17.9591Z" fill="white"/>
</g>
<defs>
<clipPath id="clip0_9483_17009">
<rect width="40" height="40" fill="white"/>
</clipPath>
</defs>
</svg>
