<svg width="80" height="80" viewBox="0 0 80 80" fill="none" xmlns="http://www.w3.org/2000/svg">
<path d="M0 12C0 5.37258 5.37258 0 12 0H80V80H12C5.37258 80 0 74.6274 0 68V12Z" fill="#4420F8"/>
<g clip-path="url(#clip0_9483_19923)">
<path fill-rule="evenodd" clip-rule="evenodd" d="M26.5981 24.9321L28.4179 19.4727H31.5802L33.4 24.9321L38.8594 26.7519V29.9142L33.4 31.734L31.5802 37.1934H28.4179L26.5981 31.734L21.1387 29.9142V26.7519L26.5981 24.9321ZM29.9991 25.2702L29.4969 26.7767L28.4428 27.8308L26.9362 28.333L28.4428 28.8352L29.4969 29.8893L29.9991 31.3959L30.5012 29.8893L31.5553 28.8352L33.0619 28.333L31.5553 27.8308L30.5012 26.7767L29.9991 25.2702ZM48.4806 30.0623C47.7305 30.001 46.76 29.9997 45.3324 29.9997H43.3324V26.6664H45.4012C46.7428 26.6664 47.8501 26.6663 48.7521 26.74C49.6889 26.8166 50.5501 26.9809 51.359 27.393C52.6134 28.0322 53.6332 29.052 54.2724 30.3064C54.6846 31.1153 54.8488 31.9765 54.9254 32.9133C54.9991 33.8153 54.999 34.9226 54.999 36.2642V42.0677C54.999 43.4093 54.9991 44.5165 54.9254 45.4185C54.8488 46.3553 54.6846 47.2165 54.2724 48.0254C53.6332 49.2798 52.6134 50.2997 51.359 50.9388C50.5501 51.351 49.6889 51.5153 48.7521 51.5918C47.8501 51.6655 46.7428 51.6655 45.4012 51.6654H45.0514L41.2646 56.0843L38.7335 56.0842L34.9467 51.6654H34.5968C33.2552 51.6655 32.148 51.6655 31.246 51.5918C30.3092 51.5153 29.448 51.351 28.6391 50.9388C27.3847 50.2997 26.3648 49.2798 25.7256 48.0254C25.3135 47.2165 25.1492 46.3553 25.0727 45.4185C24.999 44.5165 24.999 43.4092 24.999 42.0676L24.999 40.8326H28.3324V41.9988C28.3324 43.4264 28.3337 44.3969 28.3949 45.1471C28.4546 45.8777 28.5629 46.2514 28.6957 46.5121C29.0153 47.1393 29.5252 47.6492 30.1524 47.9688C30.4131 48.1016 30.7867 48.2098 31.5174 48.2695C32.2676 48.3308 33.2381 48.3321 34.6657 48.3321H36.48L39.999 52.4385L43.5181 48.3321H45.3324C46.76 48.3321 47.7305 48.3308 48.4806 48.2695C49.2113 48.2098 49.585 48.1016 49.8457 47.9688C50.4729 47.6492 50.9828 47.1393 51.3024 46.5121C51.4352 46.2514 51.5434 45.8777 51.6031 45.1471C51.6644 44.3969 51.6657 43.4264 51.6657 41.9988V36.333C51.6657 34.9054 51.6644 33.9349 51.6031 33.1848C51.5434 32.4541 51.4352 32.0804 51.3024 31.8197C50.9828 31.1925 50.4729 30.6826 49.8457 30.363C49.585 30.2302 49.2113 30.122 48.4806 30.0623Z" fill="white"/>
<path fill-rule="evenodd" clip-rule="evenodd" d="M37.9585 37.9591L39.0504 34.6835H40.9477L42.0396 37.9591L45.3153 39.051V40.9484L42.0396 42.0403L40.9477 45.3159H39.0504L37.9585 42.0403L34.6828 40.9484V39.051L37.9585 37.9591Z" fill="white"/>
</g>
<defs>
<clipPath id="clip0_9483_19923">
<rect width="40" height="40" fill="white" transform="translate(20 20)"/>
</clipPath>
</defs>
</svg>
